# xmcd
#
# Track frame offsets: 
#        150
#        12042
#        61580
#        82657
#        95472
#        116995
#        144647
#
# Disc length: 2265 seconds
#
# Revision: 4
# Processed by: cddbd v1.5.2PL0 Copyright (c) Steve Scherf et al.
# Submitted via: ExactAudioCopy v0.95b3
#
DISCID=4c08d707
DTITLE=The Charlie Daniels Band - Saddle Tramp
DYEAR=1976
DGENRE=Country
TTITLE0=Dixie On My Mind
TTITLE1=Saddle Tramp
TTITLE2=Sweet Louisiana
TTITLE3=Wichita Jail
TTITLE4=Cumberland Mountain Number Nine
TTITLE5=It's My Life
TTITLE6=Sweetwater Texas
EXTD=1976 YEAR: 1976
EXTT0=
EXTT1=
EXTT2=
EXTT3=
EXTT4=
EXTT5=
EXTT6=
PLAYORDER=
